<svg width="20" height="20" viewBox="0 0 20 20" fill="none" xmlns="http://www.w3.org/2000/svg">
<path d="M15.625 14.0625C17.5 11.5 1.40626 10.875 1.40626 10.875C1.40626 10.875 1.03126 11.4063 1.31251 11.8125C1.50001 12.0937 1.65626 12.2188 1.56251 12.5C1.46876 12.8125 1.81251 13.125 1.87501 13.4375C1.96876 13.9375 1.68751 14.1875 2.28126 14.4688C2.50001 14.5625 3.65626 14.9688 3.71876 14.4688C3.90626 14.9062 4.28126 15.3125 4.71876 15.5C5.15626 15.7187 5.71876 15.75 6.12501 15.8438C6.34376 16.3438 6.65626 16.125 7.00001 16.375C7.37501 16.6563 7.93751 16.9063 8.40626 16.8125C8.81251 16.75 8.78126 16.5313 9.21876 16.875C9.18751 17.375 9.65626 17.1562 10 17.2812C10.3125 17.375 11.625 17.375 11.8125 17.4375C12 17.5313 11.6563 17.9375 11.9375 18.0938C12.4063 18.3438 12.9688 17.2188 13.1875 17.0313C13.1563 17.2188 13.0625 18.0625 13.5 17.9375C14.0625 17.7813 13.9063 16.9688 14.375 16.8125C14.9063 16.5938 15.25 16.2812 15.375 15.7188C15.4375 15.5 15.4375 15.2813 15.4375 15.0938C15.7813 14.9687 15.8125 14.25 15.625 14.0625Z" fill="#F7F2DF"/>
<path d="M8.65625 16.0938C8.125 15.8125 7.62499 15.75 7.49999 15.9375C7.37499 16.125 7.71874 16.5313 8.21874 16.8125C8.74999 17.0938 9.24999 17.1563 9.37499 16.9688C9.53124 16.75 9.1875 16.375 8.65625 16.0938ZM3.74999 14.2188C3.21874 13.9688 2.6875 13.9063 2.59375 14.125C2.46875 14.3125 2.8125 14.6875 3.375 14.9688C3.90625 15.2188 4.43749 15.2813 4.53124 15.0625C4.62499 14.8438 4.28125 14.4688 3.74999 14.2188ZM5.8125 15.1875C5.28125 14.9375 4.74999 14.875 4.65624 15.0938C4.56249 15.3125 4.90624 15.6875 5.43749 15.9375C5.96874 16.1875 6.5 16.25 6.59375 16.0313C6.6875 15.8125 6.34375 15.4375 5.8125 15.1875ZM12.0937 16.4063C12.1562 16.25 12.1875 16.125 12.125 16.0313C11.9687 15.8438 11.4687 15.9688 11 16.3125C10.5312 16.6563 10.2812 17.0938 10.4375 17.2813C10.5 17.375 10.6562 17.375 10.8437 17.3438C10.7187 17.5625 10.6875 17.75 10.7812 17.8438C10.9375 18.0313 11.4375 17.8438 11.875 17.4688C12.3125 17.0938 12.5312 16.625 12.375 16.4688C12.2812 16.4063 12.1875 16.375 12.0937 16.4063ZM10.4062 15.6563C10.4062 15.6875 10.4375 15.7188 10.4375 15.7188C10.5937 15.9063 11.0937 15.7813 11.5625 15.4375C12.0312 15.0938 12.2812 14.6563 12.125 14.4688C11.9687 14.2813 11.4687 14.4063 11 14.75L10.9062 14.8438C10.9062 14.7813 10.9062 14.7188 10.8437 14.6875C10.75 14.5625 10.5 14.5938 10.2187 14.75C10.125 14.75 10 14.7188 9.90625 14.7188C9.3125 14.6875 8.8125 14.875 8.8125 15.0938C8.8125 15.25 9.03124 15.4063 9.37499 15.4688C9.21874 15.7188 9.15625 15.9375 9.28125 16.0313C9.4375 16.2188 9.9375 16.0313 10.375 15.6563H10.4062ZM13.9062 15C13.6875 14.9063 13.3125 15.25 13.0625 15.75C12.9062 16.0625 12.8125 16.8438 13.0312 16.875C13.2812 16.875 13.625 16.625 13.875 16.125C14.125 15.5938 14.125 15.0938 13.9062 15ZM15.4687 13.125C15.25 13.0313 14.875 13.375 14.625 13.875C14.375 14.4063 14.375 14.9063 14.5937 15C14.8125 15.0938 15.1875 14.75 15.4375 14.25C15.6875 13.7188 15.6875 13.2188 15.4687 13.125ZM4.37499 13.9063C4.28124 14.125 4.62499 14.5 5.15624 14.75C5.6875 15 6.21875 15.0625 6.3125 14.8438C6.40625 14.625 6.0625 14.25 5.53125 14C5.03125 13.75 4.49999 13.7188 4.37499 13.9063ZM3.125 12.875C3.09375 12.3125 2.87499 11.8438 2.62499 11.875C2.37499 11.875 2.21874 12.3438 2.24999 12.9375C2.28124 13.5313 2.5 13.9688 2.75 13.9375C2.96875 13.9063 3.15625 13.4375 3.125 12.875ZM4.81249 13.3125C5.15624 12.8438 5.28124 12.375 5.09374 12.2188C4.90624 12.0938 4.4375 12.3438 4.09375 12.8125C3.75 13.2813 3.62499 13.75 3.81249 13.9063C4.03124 14.0313 4.46874 13.75 4.81249 13.3125ZM9.03124 14.5C9.03124 14.2813 8.56249 14.0625 7.96874 14.0313C7.375 14 6.87499 14.1875 6.87499 14.4063C6.87499 14.625 7.34374 14.8438 7.93749 14.875C8.53124 14.9063 9.03124 14.75 9.03124 14.5Z" fill="#E8E1D6"/>
<path d="M4.1875 4.28125H12.125V7.375H4.1875V4.28125Z" fill="#3F4237"/>
<path d="M11.9375 6.59375C12.7187 8.0625 11.1875 9.8125 8.15624 9.8125C5.15624 9.8125 3.62499 8.0625 4.37499 6.59375C4.93749 5.53125 6.56249 4.875 8.15624 4.875C9.74999 4.90625 11.375 5.5625 11.9375 6.59375Z" fill="#3F4237"/>
<path d="M11.9375 3.5625C12.7187 5.0625 11.1875 6.78125 8.15624 6.78125C5.15624 6.78125 3.62499 5.03125 4.37499 3.5625C4.93749 2.53125 6.56249 1.875 8.15624 1.875C9.74999 1.875 11.375 2.53125 11.9375 3.5625Z" fill="#8CC63E"/>
<path d="M11.5938 3.5625C12.2188 4.875 10.7813 6.375 8.15626 6.375C5.53126 6.375 4.09376 4.875 4.71876 3.5625C5.18751 2.59375 6.65626 1.96875 8.15626 1.96875C9.65626 1.96875 11.125 2.59375 11.5938 3.5625Z" fill="#FFEEE2"/>
<path d="M9.87501 3.71875C10.0313 4.3125 9.25001 4.90625 8.15626 4.90625C7.06251 4.90625 6.31251 4.34375 6.43751 3.71875C6.56251 3.1875 7.31251 2.84375 8.15626 2.84375C9.00001 2.84375 9.75001 3.1875 9.87501 3.71875Z" fill="#FF5555"/>
<path d="M11.4375 6.6875H19.375V9.78125H11.4375V6.6875Z" fill="#3F4237"/>
<path d="M19.1875 9C19.9687 10.4688 18.4375 12.2188 15.4062 12.2188C12.4062 12.2188 10.875 10.4688 11.625 9C12.1875 7.9375 13.8125 7.28125 15.4062 7.28125C17 7.28125 18.625 7.96875 19.1875 9Z" fill="#3F4237"/>
<path d="M19.1875 5.96875C19.9687 7.4375 18.4375 9.1875 15.4062 9.1875C12.4062 9.1875 10.875 7.4375 11.625 5.96875C12.1875 4.90625 13.8125 4.25 15.4062 4.25C17 4.25 18.625 4.9375 19.1875 5.96875Z" fill="#8CC63E"/>
<path d="M18.8438 5.96875C19.4688 7.28125 18.0313 8.78125 15.4063 8.78125C12.7813 8.78125 11.3438 7.28125 11.9688 5.96875C12.4375 5 13.9063 4.375 15.4063 4.375C16.875 4.40625 18.375 5 18.8438 5.96875Z" fill="#FFEEE2"/>
<path d="M17.125 6.125C17.2813 6.71875 16.5 7.3125 15.4063 7.3125C14.3125 7.3125 13.5625 6.75 13.6875 6.125C13.8125 5.59375 14.5625 5.25 15.4063 5.25C16.25 5.25 17 5.59375 17.125 6.125Z" fill="#FF5555"/>
<path d="M0.625013 9.75C0.593763 10.4375 1.09376 11.3437 1.81251 11.7812C2.53126 12.2187 13.1875 16.3125 13.75 15.7187C14.2813 15.125 11.6563 11.75 10.1875 11.125C6.25001 9.4375 0.625013 9.75 0.625013 9.75Z" fill="#EC6430"/>
<path d="M13.5937 14.5C13.5625 14.8438 13.625 15.8125 13.75 15.75C14.4375 15.25 16.3437 12.8125 15.4687 10.8438L13.5937 14.5Z" fill="#E8491F"/>
<path d="M0.625 9.75001C0.625 9.75001 2.375 7.56251 3.03125 7.31251C4.875 6.65626 4.9375 6.68751 6.3125 7.00001C7.71875 7.31251 14 8.87501 15.4375 10.8125C15.8125 11.3125 13.9688 14.625 13.5625 14.875C13.1875 15.0625 11 14.4375 8.0625 12.5313C4.71875 10.375 1.34375 9.93751 0.625 9.75001Z" fill="#F3813B"/>
<path d="M11.9687 14.2187C11.8125 14.125 11.625 14.0312 11.4688 13.9375C11.375 12.9062 11.75 11.7188 11.6875 10.6875C11.4688 11.625 10.9375 12.5625 10.6875 13.5C10.625 13.4688 10.5313 13.4062 10.4688 13.375C9.875 13 9.25 12.6562 8.65625 12.2812C9.0625 11.0625 9.3125 9.6875 8.71875 8.5C9 9.6875 8.53125 10.8437 7.9375 11.875C7.78125 11.7812 7.625 11.6875 7.4375 11.5937C6.90625 11.3125 6.34375 11.0625 5.78125 10.8125C5.53125 9.75 6.46875 8.4375 5.5 7.53125C6.0625 8.4375 5.28125 9.5 5.03125 10.5C4.75 10.4062 4.4375 10.2813 4.15625 10.2188C3 9.90625 1.8125 9.6875 0.625 9.75C1.75 10.0625 2.84375 10.4688 3.90625 10.9063C4.96875 11.375 5.96875 11.875 7 12.4063C8.03125 12.9375 9.0625 13.5 10.125 13.9688C10.6563 14.2188 11.2188 14.4375 11.7813 14.5938C12.3438 14.75 12.9688 14.875 13.5625 14.8125C13 14.7188 12.4687 14.5 11.9687 14.2187Z" fill="#F4A24E"/>
</svg>
